<?xml version="1.0" encoding="UTF-8"?>
<svg width="1200" height="760" viewBox="0 0 1200 760" xmlns="http://www.w3.org/2000/svg" role="img" aria-label="Abstract hero graphic">
  <defs>
    <linearGradient id="bg" x1="0" y1="0" x2="1" y2="1">
      <stop offset="0%" stop-color="#effcfb"/>
      <stop offset="100%" stop-color="#ffffff"/>
    </linearGradient>
    <linearGradient id="blobA" x1="0" y1="0" x2="1" y2="1">
      <stop offset="0%" stop-color="#0f766e" stop-opacity="0.95"/>
      <stop offset="100%" stop-color="#0ea5e9" stop-opacity="0.86"/>
    </linearGradient>
  </defs>
  <rect width="1200" height="760" fill="url(#bg)"/>
  <path d="M215 489C148 430 120 336 168 258C216 180 340 160 438 170C554 182 682 203 743 296C802 387 760 504 662 572C569 637 438 648 337 619C295 607 250 581 215 489Z" fill="url(#blobA)"/>
  <path d="M885 203C956 212 1031 253 1068 326C1106 403 1100 513 1039 576C980 639 870 654 782 632C695 610 628 551 606 474C584 396 612 309 678 258C734 215 812 194 885 203Z" fill="#0ea5e9" fill-opacity="0.22"/>
  <circle cx="924" cy="223" r="54" fill="#0f766e" fill-opacity="0.22"/>
  <circle cx="301" cy="170" r="28" fill="#0ea5e9" fill-opacity="0.3"/>
</svg>
